<?xml version="1.0"?>
<svg xmlns="http://www.w3.org/2000/svg" xmlns:xlink="http://www.w3.org/1999/xlink" xmlns:svgjs="http://svgjs.com/svgjs" version="1.1" width="512" height="512" x="0" y="0" viewBox="0 0 512 512" style="enable-background:new 0 0 512 512" xml:space="preserve" class=""><g><g xmlns="http://www.w3.org/2000/svg"><path d="m0 0v512h512v-512zm301 90h121v332h-121zm-271-60h241v452h-241zm452 452h-181v-30h151v-392h-151v-30h181z" fill="#b7b4b4" data-original="#000000" style="" class=""/><path d="m118.621 196.604h63.758v30h-63.758z" transform="matrix(.707 -.707 .707 .707 -105.546 168.397)" fill="#b7b4b4" data-original="#000000" style="" class=""/><path d="m118.621 285.396h63.758v30h-63.758z" transform="matrix(.707 -.707 .707 .707 -168.332 194.404)" fill="#b7b4b4" data-original="#000000" style="" class=""/><path d="m329.621 196.604h63.758v30h-63.758z" transform="matrix(.707 -.707 .707 .707 -43.746 317.597)" fill="#b7b4b4" data-original="#000000" style="" class=""/><path d="m329.621 285.396h63.758v30h-63.758z" transform="matrix(.707 -.707 .707 .707 -106.532 343.598)" fill="#b7b4b4" data-original="#000000" style="" class=""/><path d="m60 60v392h181v-392zm151 362h-121v-332h121z" fill="#b7b4b4" data-original="#000000" style="" class=""/></g></g></svg>
